FOR ENGLISH, PLEASE SCROLL DOWN!

~~~~~~~~~~~~~~~~~~~~~~~~~~~~~~~~~~~~~~~~~~~~~~~~~~~~~~~~~
Star Wars - The Clone Wars (2008) - Verenigde Staten - Afleveringen duren ongeveer 22 minuten - Gecreëerd door George Lucas - Met stemmen van o.a. Tom Kane als Narrator, Dee Bradley Baker als Clone Troopers, Matt Lanter als Anakin Skywalker,  James Arnold Taylor als Obi-Wan Kenobi, Matthew Wood als Battle Droids, Ashley Eckstein als Ahsoka Tano & Corey Burton als Count Dooku.
~~~~~~~~~~~~~~~~~~~~~~~~~~~~~~~~~~~~~~~~~~~~~~~~~~~~~~~~~
VERHAALLIJN:
¯¯¯¯¯¯¯¯¯¯¯¯
Terwijl het heelal geteisterd wordt door de Clone Wars, trachten de Jedi-ridders de orde te handhaven en de vrede te herstellen. Steeds meer stelsels vallen ten prooi aan de duistere kant en de Galactische Republiek dreigt te bezwijken onder de druk van de Separartisten en hun onuitroeibare droïdeleger..
~~~~~~~~~~~~~~~~~~~~~~~~~~~~~~~~~~~~~~~~~~~~~~~~~~~~~~~~~
Ondertitelingen: Engels door onbekend & Nederlands door r3po van bierdopje. Werelds zoals gewoon!
Menu: Nee
Covers: Nee.
Genre : Animatie | Sci-Fi

IMDb: http://www.imdb.com/title/tt0458290/
Officiële website: http://www.starwars.com/theclonewars/

~~~~~~~~~~~~~~~~~~~~~~~~~~~~~~~~~~~~~~~~~~~~~~~~~~~~~~~~~
Star Wars - The Clone Wars (2008) - United States - Episodes lasts about 22 minutes - Created by George Lucas - With voices of Tom Kane as Narrator, Dee Bradley Baker as Clone Troopers, Matt Lanter as Anakin Skywalker,  James Arnold Taylor as Obi-Wan Kenobi, Matthew Wood as Battle Droids, Ashley Eckstein as Ahsoka Tano & Corey Burton as Count Dooku.

~~~~~~~~~~~~~~~~~~~~~~~~~~~~~~~~~~~~~~~~~~~~~~~~~~~~~~~~~
PLOT:
¯¯¯¯¯
Padmé, on a diplomatic mission to Mandalore, guarantees the pacifist planet the Republic's full protection, but she and Duchess Satine soon find something sinister lurking beneath the planet's serene facade. Moogan smugglers have been sneaking in supplies, including bottled tea destined for the Mandalorian schools. To increase their profits, they have been diluting the tea with a hazardous chemical. 

~~~~~~~~~~~~~~~~~~~~~~~~~~~~~~~~~~~~~~~~~~~~~~~~~~~~~~~~~
Subtitles: English by 'unknown' and Dutch by r3po from bierdopje. Thanks again man!
Menu: No
Covers: No.
Genre : Animation | Sci-Fi

IMDb: http://www.imdb.com/title/tt0458290/
Official website: http://www.starwars.com/theclonewars/

~~~~~~~~~~~~~~~~~~~~~~~~~~~~~~~~~~~~~~~~~~~~~~~~~~~~~~~~~
VIDEO AND AUDIO INFORMATION
¯¯¯¯¯¯¯¯¯¯¯¯¯¯¯¯¯¯¯¯¯¯¯¯¯¯¯¯¯¯
Format                           : Matroska
File size                        : 560 MiB
Duration                         : 22mn 4s
Overall bit rate                 : 3 547 Kbps
Writing application              : x264.exe
Writing library                  : mkv2rls x264-tv version built on 2010 jul 11

Video
ID                               : 1
Format                           : AVC
Format/Info                      : Advanced Video Codec
Format profile                   : High@L3.1
Format settings, CABAC           : Yes
Format settings, ReFrames        : 3 frames
Muxing mode                      : Container profile=Unknown@3.1
Codec ID                         : V_MPEG4/ISO/AVC
Duration                         : 22mn 3s
Bit rate                         : 3 088 Kbps
Width                            : 1 280 pixels
Height                           : 720 pixels
Display aspect ratio             : 16:9
Frame rate                       : 23.976 fps
Color space                      : YUV
Chroma subsampling               : 4:2:0
Bit depth                        : 8 bits
Scan type                        : Progressive
Bits/(Pixel*Frame)               : 0.140
Stream size                      : 478 MiB (85%)
Writing library                  : x264 core 84 r1400M 20fa784
Encoding settings                : cabac=1 / ref=3 / deblock=1:0:0 / analyse=0x3:0x113 / me=hex / subme=6 / psy=1 / psy_rd=1.0:0.0 / mixed_ref=0 / me_range=16 / chroma_me=1 / trellis=1 / 8x8dct=1 / cqm=0 / deadzone=21,11 / fast_pskip=1 / chroma_qp_offset=-2 / threads=24 / sliced_threads=0 / nr=0 / decimate=1 / mbaff=0 / constrained_intra=0 / bframes=6 / b_pyramid=1 / b_adapt=2 / b_bias=0 / direct=1 / wpredb=1 / wpredp=0 / keyint=240 / keyint_min=24 / scenecut=40 / intra_refresh=0 / rc_lookahead=40 / rc=2pass / mbtree=1 / bitrate=3088 / ratetol=1.0 / qcomp=0.60 / qpmin=10 / qpmax=51 / qpstep=4 / cplxblur=20.0 / qblur=0.5 / ip_ratio=1.40 / aq=1:1.00 / pulldown=0 / nal_hrd=0
Language                         : English

Audio
ID                               : 2
Format                           : AC-3
Format/Info                      : Audio Coding 3
Mode extension                   : CM (complete main)
Codec ID                         : A_AC3
Duration                         : 22mn 4s
Bit rate mode                    : Constant
Bit rate                         : 448 Kbps
Channel(s)                       : 6 channels
Channel positions                : Front: L C R, Side: L R, LFE
Sampling rate                    : 48.0 KHz
Bit depth                        : 16 bits
Stream size                      : 70.7 MiB (13%)
Title                            : English
Language                         : English

Text
ID                               : 3
Format                           : UTF-8
Codec ID                         : S_TEXT/UTF8
Codec ID/Info                    : UTF-8 Plain Text
Title                            : English
Language                         : English


*****************************************
Brought to you by 2Lions Team
******************************************